inDegrees=no
num_controls=7
num_derivatives=13
num_iterations=110
num_multipliers=7
num_parameters=0
num_slacks=7
num_states=26
objective=5.796679
objective_accelerations=0.303376
objective_balance=0.055730
objective_effort=0.387439
objective_height=5.005751
objective_ligament=0.044384
solver_duration=947.618550
status=Solve_Succeeded
success=true
DataType=double
version=3
OpenSimVersion=4.4-2022-07-23-0e9fedc
endheader
time	/jointset/ground_pelvis/pelvis_tilt/value	/jointset/ground_pelvis/pelvis_tx/value	/jointset/ground_pelvis/pelvis_ty/value	/jointset/hip_r/hip_flexion_r/value	/jointset/hip_r/hip_adduction_r/value	/jointset/hip_r/hip_rotation_r/value	/jointset/back/lumbar_extension/value	/jointset/patellofemoral_r/patellar_flexion_r/value	/jointset/knee_r/knee_flexion_r/value	/jointset/knee_r/knee_adduction_r/value	/jointset/knee_r/knee_rotation_r/value	/jointset/ankle_r/ankle_angle_r/value	/jointset/subtalar_r/subtalar_angle_r/value	/jointset/ground_pelvis/pelvis_tilt/speed	/jointset/ground_pelvis/pelvis_tx/speed	/jointset/ground_pelvis/pelvis_ty/speed	/jointset/hip_r/hip_flexion_r/speed	/jointset/hip_r/hip_adduction_r/speed	/jointset/hip_r/hip_rotation_r/speed	/jointset/back/lumbar_extension/speed	/jointset/patellofemoral_r/patellar_flexion_r/speed	/jointset/knee_r/knee_flexion_r/speed	/jointset/knee_r/knee_adduction_r/speed	/jointset/knee_r/knee_rotation_r/speed	/jointset/ankle_r/ankle_angle_r/speed	/jointset/subtalar_r/subtalar_angle_r/speed	/forceset/tau_hip_flexion_r	/forceset/tau_hip_adduction_r	/forceset/tau_hip_rotation_r	/forceset/tau_knee_flexion_r	/forceset/tau_ankle_angle_r	/forceset/tau_subtalar_angle_r	/forceset/tau_lumbar_extension	lambda_cid13_p0	lambda_cid14_p0	lambda_cid14_p1	lambda_cid14_p2	lambda_cid14_p3	lambda_cid14_p4	lambda_cid14_p5	/jointset/ground_pelvis/pelvis_tilt/accel	/jointset/ground_pelvis/pelvis_tx/accel	/jointset/ground_pelvis/pelvis_ty/accel	/jointset/hip_r/hip_flexion_r/accel	/jointset/hip_r/hip_adduction_r/accel	/jointset/hip_r/hip_rotation_r/accel	/jointset/back/lumbar_extension/accel	/jointset/patellofemoral_r/patellar_flexion_r/accel	/jointset/knee_r/knee_flexion_r/accel	/jointset/knee_r/knee_adduction_r/accel	/jointset/knee_r/knee_rotation_r/accel	/jointset/ankle_r/ankle_angle_r/accel	/jointset/subtalar_r/subtalar_angle_r/accel	gamma_cid13_p0	gamma_cid14_p0	gamma_cid14_p1	gamma_cid14_p2	gamma_cid14_p3	gamma_cid14_p4	gamma_cid14_p5
1	-0.111983271388505	0.06858177149411718	0.7946129497757131	0.8907387822265219	-0.2348798137350271	-0.09425736071525542	-0.4361272390862936	1.024934541832763	1.024934541832915	-0.01603449707101908	0.1745173673005632	0.4363108097366384	0.1067896294959175	-0.001247792460751859	0.007299116867999607	0.01258062225905686	-0.04008823993163476	0.002593761285702571	-0.01226404732593561	0.017746842704918	-0.04990092968821728	-0.04990092968821914	-0.001031985190825222	-0.0001263891926399619	-0.00962620060483467	0.0009281953294197196	-0.1518427095299117	0.02879956032005679	0.01414116116289658	-0.4140119433326681	-0.06530573882823633	0.004002358388555081	0.2145674046301479	-10.48872447260314	-67.27470372294408	-9.472228855755279	1.320325519012114	17.27105828975835	-759.2859945267543	54.77246059737899	0.6492517307992183	0.07825615287043126	1.001445477831335	-3.249605967295191	0.09378181560527467	-0.431991669334728	0.7909584550899091	-3.908609116018131	-3.908609116018191	0.5881035666509243	-0.006054114834803686	-1.493134009233272	-0.418199689193084	1.192245389695525e-09	-1.411810745887383e-09	4.885684799567847e-10	7.628341840163935e-09	4.354001150988456e-09	-4.95059582994757e-09	-9.133156186134586e-11
1.01	-0.1119642354964168	0.06865869285003076	0.7947886785955353	0.8901765363103643	-0.23484936416552	-0.09440124145290671	-0.4359086582227122	1.024240276620625	1.024240276620674	-0.01601481891237603	0.1745159588152347	0.4361398170724159	0.1067776603208041	0.005018551176064697	0.008089010844254197	0.02256275666255918	-0.07233447312710717	0.003495018094555772	-0.01651342561644534	0.02606263063093085	-0.08896883063519444	-0.08896883063519924	0.004974361192754051	-0.0001529249015034803	-0.02458062050317154	-0.003326546813266603	-0.1523365862315614	0.02888232997306919	0.01412231670996562	-0.4131878549871614	-0.06631839061522959	0.004134643098718398	0.2150155512740111	-10.53470955689068	-67.60024073663236	-9.446399882143705	1.287221120984803	17.45462493338016	-759.4413143823664	54.78340323950161	0.6098632862195892	0.07993519447320342	0.9962381441069459	-3.208161089456638	0.08812969055804012	-0.4216079630541798	0.8658840537692564	-3.908388686947499	-3.908388686947234	0.6079117879671349	-0.0005930933141012223	-1.497839470506949	-0.4297871749789157	2.084385900819678e-09	-4.938420375399942e-10	1.436300743643907e-10	1.429646524217191e-08	3.479704796076211e-09	-7.578595903390221e-09	-7.343329611562474e-10
1.02	-0.1118836286467233	0.06874362898060395	0.795064156903889	0.8892926222435777	-0.2348099356124012	-0.09458765538440987	-0.4356041204613736	1.023154830778461	1.023154830778339	-0.01593487496698532	0.1745143570138823	0.4358190315111189	0.1067230085846472	0.01106639905674924	0.008902071799919292	0.03253051996533509	-0.1044218700738762	0.004389557984672619	-0.02077068607273081	0.03493822225332886	-0.1281370556985735	-0.1281370556985807	0.01102117212652578	-0.0001650523864323064	-0.0395847800164295	-0.007608316882859215	-0.1528304629328768	0.02896509962608286	0.01410347225657812	-0.4123637666416519	-0.06733104240226159	0.004266927808874947	0.2154636979181827	-10.60674342455813	-67.93556441659413	-9.41617290639692	1.24643473888996	17.64602415657689	-759.764322456615	54.82448053705993	0.6055525795726724	0.08288954875284514	0.9985712576860317	-3.217838717554735	0.09243843185794123	-0.4335681024899361	0.902919194366831	-3.928673939298318	-3.928673939298272	0.5961964766894411	-0.003172470047725412	-1.50308193221696	-0.423605274574276	2.884157992584399e-09	-1.512749928268037e-10	-2.80013017889806e-09	2.239998643685413e-08	4.055893882652281e-09	-9.071820210301008e-09	-5.618878779459185e-09
1.03	-0.1117436063047508	0.0688368385502077	0.7954391909570788	0.888088648925679	-0.2347615997745626	-0.09481668223249612	-0.435208049149668	1.021677317083224	1.021677317083166	-0.01579428805540975	0.1745126888921993	0.4353480295546674	0.1066254393740006	0.0169025345717535	0.009746418708300437	0.04246867380675007	-0.1363420249379413	0.005275898891058133	-0.02503579505069286	0.04436980669588829	-0.1673707612996344	-0.1673707612996372	0.01710071854628662	-0.0001677912343963135	-0.05461672196006311	-0.01190680615181247	-0.1530782651270724	0.0289492176251093	0.01409122576244245	-0.4114223318198566	-0.06798316916261532	0.004341159607705576	0.2156990536472651	-10.70487811987838	-68.13441902581614	-9.388215422710598	1.207097355164878	17.73936264525862	-759.708399485321	54.83407548971493	0.5673146467633794	0.0861946837976262	0.9902927977646624	-3.174488010500247	0.08648012703279682	-0.4231451928345202	0.9773430601334261	-3.921481304565205	-3.921481304563981	0.6145094772942622	0.001297981575262216	-1.503417121340858	-0.4331600955075726	3.682987549457698e-09	1.854206063390957e-10	-5.770409022442873e-09	3.051815454778813e-08	4.646883841080282e-09	-1.055346517265534e-08	-1.054670566326223e-08
1.04	-0.1115462884857517	0.06893868907328143	0.7959133776187588	0.8865663972312463	-0.2347044508861503	-0.0950883927499412	-0.4347148489953518	1.019807313845199	1.019807313845128	-0.01559277052894392	0.1745110178967247	0.4347266748195922	0.1064848474021915	0.02252549445870258	0.01063026249391924	0.05236104166334665	-0.1680775453886978	0.006152168077545847	-0.02930741992403095	0.0543639907756597	-0.2066349642629081	-0.2066349642629077	0.0232072950730023	-0.0001656271325077616	-0.06965533573986822	-0.01621286911883842	-0.1533260673211961	0.02893333562417233	0.01407897926772449	-0.4104808969981018	-0.06863529592298354	0.004415391406602279	0.2159344093764146	-10.8291570318866	-68.34315675246803	-9.355911555719883	1.160125895064385	17.84053041910405	-759.8215992042211	54.87387124150451	0.5629174539614574	0.09078892420067809	0.9894140607223273	-3.180911834893202	0.09042408787831095	-0.4348712815652175	1.015439121809108	-3.934773411740701	-3.934773411740884	0.6016024980804586	-0.002191880077028561	-1.504416299450757	-0.4251200141887884	4.424999930937614e-09	5.463507900695072e-10	-8.371443588919732e-09	3.807662128898787e-08	5.049260175749424e-09	-1.19821774572284e-08	-1.483832091265534e-08
1.05	-0.1112937754789048	0.06904956662658725	0.7964862113961644	0.884727766722732	-0.2346385967683158	-0.09540286611089119	-0.4341190144448048	1.017544604141696	1.01754460414168	-0.01533007444361087	0.1745093956914737	0.4339549063315614	0.1063011617255071	0.02794264635905011	0.0115509479952298	0.06219309041332106	-0.1996101597331772	0.00701620245686631	-0.0335888263198339	0.06488723599282373	-0.2459031085637428	-0.2459031085637245	0.02933505302242837	-0.0001581286910550588	-0.08469904101363478	-0.02052523693026113	-0.1533069773107587	0.02884910347799467	0.01407055891039636	-0.4093587790830514	-0.06907503896348206	0.00443830620875821	0.2159130381768077	-10.9795900182897	-68.46393744086066	-9.331646357535472	1.115752183596196	17.92182946591637	-759.5352078355149	54.86905775520621	0.5259460227184678	0.09356443127547118	0.9782040751522493	-3.133676009800645	0.08403230906526352	-0.4250056469997893	1.08341472037702	-3.922255798880351	-3.922255798877022	0.6188311727560427	0.00233150504967397	-1.504449647688894	-0.4344369768388107	5.165236775686486e-09	9.080383045675598e-10	-1.096093927173822e-08	4.561759736238342e-08	5.445742334676103e-09	-1.34092355956208e-08	-1.911005454847313e-08
1.06	-0.11098812456011	0.06916982224854461	0.7971569864196701	0.8825749621156567	-0.2345641744673692	-0.09576019960156437	-0.4334154179423574	1.014889328823305	1.014889328823253	-0.01500600703274884	0.1745078706303254	0.4330326803895169	0.106074324008281	0.03315307684524298	0.01250587622422973	0.07194929088334445	-0.2309123651006646	0.007865804680375409	-0.03787944585207986	0.07591638115816267	-0.2851480872496008	-0.2851480872495652	0.03548156014710565	-0.0001461982978606599	-0.09974682654137199	-0.02484327723047675	-0.1532878873004952	0.02876487133188992	0.01406213855228484	-0.4082366611680821	-0.06951478200396932	0.004461221011057305	0.2158916669770418	-11.15618152433415	-68.59467158424461	-9.303104017000168	1.063820469567429	18.01080329372481	-759.4189536584071	54.89451018243587	0.5215731711303193	0.09763746973885092	0.9742444047321032	-3.134830039494996	0.08753765671596858	-0.4367139088538941	1.116619111443963	-3.930140288745168	-3.930140288745489	0.6053523331307674	-0.001305489728485846	-1.505232350244396	-0.4262545119473645	5.873524810350259e-09	1.178713733501083e-09	-1.429629186903013e-08	5.290353887275827e-08	5.995819130998548e-09	-1.474145712976265e-08	-2.414252502426597e-08
1.07	-0.1106313543200297	0.06929980127163687	0.7979248968058025	0.8801103123451546	-0.2344813318891887	-0.09616051351436174	-0.4325991024555084	1.011841820376647	1.011841820376458	-0.01462042526100033	0.1745064875058878	0.4319599896578133	0.1058042998107275	0.03816924265535009	0.01349591304405433	0.08161516222494367	-0.2619742827022915	0.008699830338730535	-0.04218600901505726	0.08742344958506486	-0.3243394172837202	-0.3243394172836774	0.04163505225677054	-0.0001303315605081358	-0.1147888044581554	-0.02916060550870302	-0.1530171245040387	0.0285664290161566	0.01405777373673026	-0.4069328986864517	-0.06972870718936601	0.004457061956724935	0.2156286584869683	-11.35890546694251	-68.63062061656782	-9.265942175399466	1.006195103504311	18.06057048774445	-758.9023453745011	54.91013603840231	0.4868802635248745	0.1005858051020902	0.9601116485973549	-3.085375793166264	0.08091227873089843	-0.4280206272886914	1.179260714122203	-3.911502967254031	-3.911502967252242	0.620384870790784	0.00305737988721837	-1.50330326681064	-0.4343239849022289	6.58011344022227e-09	1.444548094053513e-09	-1.767131770645361e-08	6.017591471488735e-08	6.554065854842045e-09	-1.606863416367842e-08	-2.921546022558939e-08
